# xmcd
#
# Track frame offsets: 
#        150
#        23105
#        44454
#        68650
#        86429
#        113392
#        130329
#        154176
#
# Disc length: 2321 seconds
#
# Revision: 0
# Processed by: cddbd v1.5.2PL0 Copyright (c) Steve Scherf et al.
# Submitted via: ExactAudioCopy v0.99pb5
#
DISCID=5b090f08
DTITLE=Midge Marsden - Burning Rain - Limited Edition Disc 2 - Hauraki
DTITLE='Live To Air'
DYEAR=2002
DGENRE=Blues
TTITLE0=Left That Town
TTITLE1=Struck Down By The Blues
TTITLE2=Burning Rain
TTITLE3=Before You Accuse Me (Take A Look At Yourself)
TTITLE4=Room To Move
TTITLE5=To Her Door
TTITLE6=Another Man Done Gone
TTITLE7=Slipping Away
EXTD=
EXTT0=
EXTT1=
EXTT2=
EXTT3=
EXTT4=
EXTT5=
EXTT6=
EXTT7=
PLAYORDER=
